# xmcd
#
# Track frame offsets: 
#        150
#        15541
#        29304
#        50383
#        68451
#        88045
#        100968
#        121949
#        131997
#        147536
#        164175
#
# Disc length: 2375 seconds
#
# Revision: 0
# Processed by: cddbd v1.5.2PL0 Copyright (c) Steve Scherf et al.
# Submitted via: ExactAudioCopyFreeDBPlugin 1.0
#
DISCID=9a09450b
DTITLE=Road House Prophets - Road House Prophets
DYEAR=2013
DGENRE=Country
TTITLE0=Good One Comin' On
TTITLE1=Little White Church
TTITLE2=Me and Bobby McGee
TTITLE3=Lot of Leavin' Left To Do
TTITLE4=Toes
TTITLE5=There Goes My Heart Again
TTITLE6=Nobody's Fool (by David Parrish)
TTITLE7=Rock 'n' Roll
TTITLE8=Goin' Sane (by Chris Blevins and RP)
TTITLE9=In Color
TTITLE10=Mission Temple Fireworks Stand
EXTD=
EXTT0=
EXTT1=
EXTT2=
EXTT3=
EXTT4=
EXTT5=
EXTT6=
EXTT7=
EXTT8=
EXTT9=
EXTT10=
PLAYORDER=
